<?xml version="1.0" encoding="utf-8" standalone="no"?>
<!DOCTYPE svg PUBLIC "-//W3C//DTD SVG 1.1//EN"
  "http://www.w3.org/Graphics/SVG/1.1/DTD/svg11.dtd">
<svg xmlns:xlink="http://www.w3.org/1999/xlink" width="369.692812pt" height="288.035406pt" viewBox="0 0 369.692812 288.035406" xmlns="http://www.w3.org/2000/svg" version="1.1">
 <metadata>
  <rdf:RDF xmlns:dc="http://purl.org/dc/elements/1.1/" xmlns:cc="http://creativecommons.org/ns#" xmlns:rdf="http://www.w3.org/1999/02/22-rdf-syntax-ns#">
   <cc:Work>
    <dc:type rdf:resource="http://purl.org/dc/dcmitype/StillImage"/>
    <dc:date>2026-03-28T08:59:33.665448</dc:date>
    <dc:format>image/svg+xml</dc:format>
    <dc:creator>
     <cc:Agent>
      <dc:title>Matplotlib v3.10.8, https://matplotlib.org/</dc:title>
     </cc:Agent>
    </dc:creator>
   </cc:Work>
  </rdf:RDF>
 </metadata>
 <defs>
  <style type="text/css">*{stroke-linejoin: round; stroke-linecap: butt}</style>
 </defs>
 <g id="figure_1">
  <g id="patch_1">
   <path d="M 0 288.035406 
L 369.692812 288.035406 
L 369.692812 0 
L 0 0 
z
" style="fill: #ffffff"/>
  </g>
  <g id="axes_1">
   <g id="patch_2">
    <path d="M 44.722813 253.382594 
L 362.492813 253.382594 
L 362.492813 20.038594 
L 44.722813 20.038594 
z
" style="fill: #ffffff"/>
   </g>
   <g id="matplotlib.axis_1">
    <g id="xtick_1">
     <g id="line2d_1">
      <path d="M 128.82607 253.382594 
L 128.82607 20.038594 
" clip-path="url(#pbe0f0bb73a)" style="fill: none; stroke: #b0b0b0; stroke-opacity: 0.22; stroke-width: 0.6; stroke-linecap: square"/>
     </g>
     <g id="line2d_2">
      <defs>
       <path id="m9d17418993" d="M 0 0 
L 0 3.5 
" style="stroke: #000000; stroke-width: 0.8"/>
      </defs>
      <g>
       <use xlink:href="#m9d17418993" x="128.82607" y="253.382594" style="stroke: #000000; stroke-width: 0.8"/>
      </g>
     </g>
     <g id="text_1">
      <!-- $\mathdefault{10^{1}}$ -->
      <g transform="translate(121.78607 266.461344)">
       <text>
        <tspan x="0" y="-0.857813" style="font-size: 8px; font-family: 'DejaVu Sans'">1</tspan>
        <tspan x="5.089844" y="-0.857813" style="font-size: 8px; font-family: 'DejaVu Sans'">0</tspan>
        <tspan x="10.25625" y="-3.920313" style="font-size: 5.6px; font-family: 'DejaVu Sans'">1</tspan>
       </text>
      </g>
     </g>
    </g>
    <g id="xtick_2">
     <g id="line2d_3">
      <path d="M 226.834406 253.382594 
L 226.834406 20.038594 
" clip-path="url(#pbe0f0bb73a)" style="fill: none; stroke: #b0b0b0; stroke-opacity: 0.22; stroke-width: 0.6; stroke-linecap: square"/>
     </g>
     <g id="line2d_4">
      <g>
       <use xlink:href="#m9d17418993" x="226.834406" y="253.382594" style="stroke: #000000; stroke-width: 0.8"/>
      </g>
     </g>
     <g id="text_2">
      <!-- $\mathdefault{10^{2}}$ -->
      <g transform="translate(219.794406 266.461344)">
       <text>
        <tspan x="0" y="-0.78125" style="font-size: 8px; font-family: 'DejaVu Sans'">1</tspan>
        <tspan x="5.089844" y="-0.78125" style="font-size: 8px; font-family: 'DejaVu Sans'">0</tspan>
        <tspan x="10.25625" y="-3.84375" style="font-size: 5.6px; font-family: 'DejaVu Sans'">2</tspan>
       </text>
      </g>
     </g>
    </g>
    <g id="xtick_3">
     <g id="line2d_5">
      <path d="M 324.842742 253.382594 
L 324.842742 20.038594 
" clip-path="url(#pbe0f0bb73a)" style="fill: none; stroke: #b0b0b0; stroke-opacity: 0.22; stroke-width: 0.6; stroke-linecap: square"/>
     </g>
     <g id="line2d_6">
      <g>
       <use xlink:href="#m9d17418993" x="324.842742" y="253.382594" style="stroke: #000000; stroke-width: 0.8"/>
      </g>
     </g>
     <g id="text_3">
      <!-- $\mathdefault{10^{3}}$ -->
      <g transform="translate(317.802742 266.461344)">
       <text>
        <tspan x="0" y="-0.78125" style="font-size: 8px; font-family: 'DejaVu Sans'">1</tspan>
        <tspan x="5.089844" y="-0.78125" style="font-size: 8px; font-family: 'DejaVu Sans'">0</tspan>
        <tspan x="10.25625" y="-3.84375" style="font-size: 5.6px; font-family: 'DejaVu Sans'">3</tspan>
       </text>
      </g>
     </g>
    </g>
    <g id="xtick_4">
     <g id="line2d_7">
      <defs>
       <path id="m7e1576a7ea" d="M 0 0 
L 0 2 
" style="stroke: #000000; stroke-width: 0.6"/>
      </defs>
      <g>
       <use xlink:href="#m7e1576a7ea" x="60.321183" y="253.382594" style="stroke: #000000; stroke-width: 0.6"/>
      </g>
     </g>
    </g>
    <g id="xtick_5">
     <g id="line2d_8">
      <g>
       <use xlink:href="#m7e1576a7ea" x="77.579595" y="253.382594" style="stroke: #000000; stroke-width: 0.6"/>
      </g>
     </g>
    </g>
    <g id="xtick_6">
     <g id="line2d_9">
      <g>
       <use xlink:href="#m7e1576a7ea" x="89.824632" y="253.382594" style="stroke: #000000; stroke-width: 0.6"/>
      </g>
     </g>
    </g>
    <g id="xtick_7">
     <g id="line2d_10">
      <g>
       <use xlink:href="#m7e1576a7ea" x="99.322621" y="253.382594" style="stroke: #000000; stroke-width: 0.6"/>
      </g>
     </g>
    </g>
    <g id="xtick_8">
     <g id="line2d_11">
      <g>
       <use xlink:href="#m7e1576a7ea" x="107.083044" y="253.382594" style="stroke: #000000; stroke-width: 0.6"/>
      </g>
     </g>
    </g>
    <g id="xtick_9">
     <g id="line2d_12">
      <g>
       <use xlink:href="#m7e1576a7ea" x="113.644387" y="253.382594" style="stroke: #000000; stroke-width: 0.6"/>
      </g>
     </g>
    </g>
    <g id="xtick_10">
     <g id="line2d_13">
      <g>
       <use xlink:href="#m7e1576a7ea" x="119.328081" y="253.382594" style="stroke: #000000; stroke-width: 0.6"/>
      </g>
     </g>
    </g>
    <g id="xtick_11">
     <g id="line2d_14">
      <g>
       <use xlink:href="#m7e1576a7ea" x="124.341455" y="253.382594" style="stroke: #000000; stroke-width: 0.6"/>
      </g>
     </g>
    </g>
    <g id="xtick_12">
     <g id="line2d_15">
      <g>
       <use xlink:href="#m7e1576a7ea" x="158.329519" y="253.382594" style="stroke: #000000; stroke-width: 0.6"/>
      </g>
     </g>
    </g>
    <g id="xtick_13">
     <g id="line2d_16">
      <g>
       <use xlink:href="#m7e1576a7ea" x="175.58793" y="253.382594" style="stroke: #000000; stroke-width: 0.6"/>
      </g>
     </g>
    </g>
    <g id="xtick_14">
     <g id="line2d_17">
      <g>
       <use xlink:href="#m7e1576a7ea" x="187.832968" y="253.382594" style="stroke: #000000; stroke-width: 0.6"/>
      </g>
     </g>
    </g>
    <g id="xtick_15">
     <g id="line2d_18">
      <g>
       <use xlink:href="#m7e1576a7ea" x="197.330957" y="253.382594" style="stroke: #000000; stroke-width: 0.6"/>
      </g>
     </g>
    </g>
    <g id="xtick_16">
     <g id="line2d_19">
      <g>
       <use xlink:href="#m7e1576a7ea" x="205.091379" y="253.382594" style="stroke: #000000; stroke-width: 0.6"/>
      </g>
     </g>
    </g>
    <g id="xtick_17">
     <g id="line2d_20">
      <g>
       <use xlink:href="#m7e1576a7ea" x="211.652723" y="253.382594" style="stroke: #000000; stroke-width: 0.6"/>
      </g>
     </g>
    </g>
    <g id="xtick_18">
     <g id="line2d_21">
      <g>
       <use xlink:href="#m7e1576a7ea" x="217.336417" y="253.382594" style="stroke: #000000; stroke-width: 0.6"/>
      </g>
     </g>
    </g>
    <g id="xtick_19">
     <g id="line2d_22">
      <g>
       <use xlink:href="#m7e1576a7ea" x="222.349791" y="253.382594" style="stroke: #000000; stroke-width: 0.6"/>
      </g>
     </g>
    </g>
    <g id="xtick_20">
     <g id="line2d_23">
      <g>
       <use xlink:href="#m7e1576a7ea" x="256.337855" y="253.382594" style="stroke: #000000; stroke-width: 0.6"/>
      </g>
     </g>
    </g>
    <g id="xtick_21">
     <g id="line2d_24">
      <g>
       <use xlink:href="#m7e1576a7ea" x="273.596266" y="253.382594" style="stroke: #000000; stroke-width: 0.6"/>
      </g>
     </g>
    </g>
    <g id="xtick_22">
     <g id="line2d_25">
      <g>
       <use xlink:href="#m7e1576a7ea" x="285.841304" y="253.382594" style="stroke: #000000; stroke-width: 0.6"/>
      </g>
     </g>
    </g>
    <g id="xtick_23">
     <g id="line2d_26">
      <g>
       <use xlink:href="#m7e1576a7ea" x="295.339293" y="253.382594" style="stroke: #000000; stroke-width: 0.6"/>
      </g>
     </g>
    </g>
    <g id="xtick_24">
     <g id="line2d_27">
      <g>
       <use xlink:href="#m7e1576a7ea" x="303.099715" y="253.382594" style="stroke: #000000; stroke-width: 0.6"/>
      </g>
     </g>
    </g>
    <g id="xtick_25">
     <g id="line2d_28">
      <g>
       <use xlink:href="#m7e1576a7ea" x="309.661059" y="253.382594" style="stroke: #000000; stroke-width: 0.6"/>
      </g>
     </g>
    </g>
    <g id="xtick_26">
     <g id="line2d_29">
      <g>
       <use xlink:href="#m7e1576a7ea" x="315.344753" y="253.382594" style="stroke: #000000; stroke-width: 0.6"/>
      </g>
     </g>
    </g>
    <g id="xtick_27">
     <g id="line2d_30">
      <g>
       <use xlink:href="#m7e1576a7ea" x="320.358126" y="253.382594" style="stroke: #000000; stroke-width: 0.6"/>
      </g>
     </g>
    </g>
    <g id="xtick_28">
     <g id="line2d_31">
      <g>
       <use xlink:href="#m7e1576a7ea" x="354.346191" y="253.382594" style="stroke: #000000; stroke-width: 0.6"/>
      </g>
     </g>
    </g>
    <g id="text_4">
     <text style="font-size: 9px; font-family: 'DejaVu Sans'; text-anchor: middle" x="203.607812" y="278.963687" transform="rotate(-0 203.607812 278.963687)">Registration Time (s, log scale)</text>
    </g>
   </g>
   <g id="matplotlib.axis_2">
    <g id="ytick_1">
     <g id="line2d_32">
      <path d="M 44.722813 232.674576 
L 362.492813 232.674576 
" clip-path="url(#pbe0f0bb73a)" style="fill: none; stroke: #b0b0b0; stroke-opacity: 0.22; stroke-width: 0.6; stroke-linecap: square"/>
     </g>
     <g id="line2d_33">
      <defs>
       <path id="me032f13e40" d="M 0 0 
L -3.5 0 
" style="stroke: #000000; stroke-width: 0.8"/>
      </defs>
      <g>
       <use xlink:href="#me032f13e40" x="44.722813" y="232.674576" style="stroke: #000000; stroke-width: 0.8"/>
      </g>
     </g>
     <g id="text_5">
      <text style="font-size: 8px; font-family: 'DejaVu Sans'; text-anchor: end" x="37.722813" y="235.713951" transform="rotate(-0 37.722813 235.713951)">0.80</text>
     </g>
    </g>
    <g id="ytick_2">
     <g id="line2d_34">
      <path d="M 44.722813 205.400602 
L 362.492813 205.400602 
" clip-path="url(#pbe0f0bb73a)" style="fill: none; stroke: #b0b0b0; stroke-opacity: 0.22; stroke-width: 0.6; stroke-linecap: square"/>
     </g>
     <g id="line2d_35">
      <g>
       <use xlink:href="#me032f13e40" x="44.722813" y="205.400602" style="stroke: #000000; stroke-width: 0.8"/>
      </g>
     </g>
     <g id="text_6">
      <text style="font-size: 8px; font-family: 'DejaVu Sans'; text-anchor: end" x="37.722813" y="208.439977" transform="rotate(-0 37.722813 208.439977)">0.82</text>
     </g>
    </g>
    <g id="ytick_3">
     <g id="line2d_36">
      <path d="M 44.722813 178.126628 
L 362.492813 178.126628 
" clip-path="url(#pbe0f0bb73a)" style="fill: none; stroke: #b0b0b0; stroke-opacity: 0.22; stroke-width: 0.6; stroke-linecap: square"/>
     </g>
     <g id="line2d_37">
      <g>
       <use xlink:href="#me032f13e40" x="44.722813" y="178.126628" style="stroke: #000000; stroke-width: 0.8"/>
      </g>
     </g>
     <g id="text_7">
      <text style="font-size: 8px; font-family: 'DejaVu Sans'; text-anchor: end" x="37.722813" y="181.166003" transform="rotate(-0 37.722813 181.166003)">0.84</text>
     </g>
    </g>
    <g id="ytick_4">
     <g id="line2d_38">
      <path d="M 44.722813 150.852654 
L 362.492813 150.852654 
" clip-path="url(#pbe0f0bb73a)" style="fill: none; stroke: #b0b0b0; stroke-opacity: 0.22; stroke-width: 0.6; stroke-linecap: square"/>
     </g>
     <g id="line2d_39">
      <g>
       <use xlink:href="#me032f13e40" x="44.722813" y="150.852654" style="stroke: #000000; stroke-width: 0.8"/>
      </g>
     </g>
     <g id="text_8">
      <text style="font-size: 8px; font-family: 'DejaVu Sans'; text-anchor: end" x="37.722813" y="153.892029" transform="rotate(-0 37.722813 153.892029)">0.86</text>
     </g>
    </g>
    <g id="ytick_5">
     <g id="line2d_40">
      <path d="M 44.722813 123.57868 
L 362.492813 123.57868 
" clip-path="url(#pbe0f0bb73a)" style="fill: none; stroke: #b0b0b0; stroke-opacity: 0.22; stroke-width: 0.6; stroke-linecap: square"/>
     </g>
     <g id="line2d_41">
      <g>
       <use xlink:href="#me032f13e40" x="44.722813" y="123.57868" style="stroke: #000000; stroke-width: 0.8"/>
      </g>
     </g>
     <g id="text_9">
      <text style="font-size: 8px; font-family: 'DejaVu Sans'; text-anchor: end" x="37.722813" y="126.618055" transform="rotate(-0 37.722813 126.618055)">0.88</text>
     </g>
    </g>
    <g id="ytick_6">
     <g id="line2d_42">
      <path d="M 44.722813 96.304706 
L 362.492813 96.304706 
" clip-path="url(#pbe0f0bb73a)" style="fill: none; stroke: #b0b0b0; stroke-opacity: 0.22; stroke-width: 0.6; stroke-linecap: square"/>
     </g>
     <g id="line2d_43">
      <g>
       <use xlink:href="#me032f13e40" x="44.722813" y="96.304706" style="stroke: #000000; stroke-width: 0.8"/>
      </g>
     </g>
     <g id="text_10">
      <text style="font-size: 8px; font-family: 'DejaVu Sans'; text-anchor: end" x="37.722813" y="99.344081" transform="rotate(-0 37.722813 99.344081)">0.90</text>
     </g>
    </g>
    <g id="ytick_7">
     <g id="line2d_44">
      <path d="M 44.722813 69.030732 
L 362.492813 69.030732 
" clip-path="url(#pbe0f0bb73a)" style="fill: none; stroke: #b0b0b0; stroke-opacity: 0.22; stroke-width: 0.6; stroke-linecap: square"/>
     </g>
     <g id="line2d_45">
      <g>
       <use xlink:href="#me032f13e40" x="44.722813" y="69.030732" style="stroke: #000000; stroke-width: 0.8"/>
      </g>
     </g>
     <g id="text_11">
      <text style="font-size: 8px; font-family: 'DejaVu Sans'; text-anchor: end" x="37.722813" y="72.070107" transform="rotate(-0 37.722813 72.070107)">0.92</text>
     </g>
    </g>
    <g id="ytick_8">
     <g id="line2d_46">
      <path d="M 44.722813 41.756758 
L 362.492813 41.756758 
" clip-path="url(#pbe0f0bb73a)" style="fill: none; stroke: #b0b0b0; stroke-opacity: 0.22; stroke-width: 0.6; stroke-linecap: square"/>
     </g>
     <g id="line2d_47">
      <g>
       <use xlink:href="#me032f13e40" x="44.722813" y="41.756758" style="stroke: #000000; stroke-width: 0.8"/>
      </g>
     </g>
     <g id="text_12">
      <text style="font-size: 8px; font-family: 'DejaVu Sans'; text-anchor: end" x="37.722813" y="44.796133" transform="rotate(-0 37.722813 44.796133)">0.94</text>
     </g>
    </g>
    <g id="text_13">
     <text style="font-size: 9px; font-family: 'DejaVu Sans'; text-anchor: middle" x="14.038594" y="136.710594" transform="rotate(-90 14.038594 136.710594)">Success Rate @ ADD&lt;0.02</text>
    </g>
   </g>
   <g id="patch_3">
    <path d="M 44.722813 253.382594 
L 44.722813 20.038594 
" style="fill: none; stroke: #000000; stroke-width: 0.8; stroke-linejoin: miter; stroke-linecap: square"/>
   </g>
   <g id="patch_4">
    <path d="M 44.722813 253.382594 
L 362.492812 253.382594 
" style="fill: none; stroke: #000000; stroke-width: 0.8; stroke-linejoin: miter; stroke-linecap: square"/>
   </g>
   <g id="PathCollection_1">
    <defs>
     <path id="m95faf23843" d="M 0 4.1833 
C 1.109424 4.1833 2.173559 3.742521 2.95804 2.95804 
C 3.742521 2.173559 4.1833 1.109424 4.1833 0 
C 4.1833 -1.109424 3.742521 -2.173559 2.95804 -2.95804 
C 2.173559 -3.742521 1.109424 -4.1833 0 -4.1833 
C -1.109424 -4.1833 -2.173559 -3.742521 -2.95804 -2.95804 
C -3.742521 -2.173559 -4.1833 -1.109424 -4.1833 0 
C -4.1833 1.109424 -3.742521 2.173559 -2.95804 2.95804 
C -2.173559 3.742521 -1.109424 4.1833 0 4.1833 
z
" style="stroke: #1f77b4"/>
    </defs>
    <g clip-path="url(#pbe0f0bb73a)">
     <use xlink:href="#m95faf23843" x="317.097098" y="212.471633" style="fill: #1f77b4; stroke: #1f77b4"/>
    </g>
   </g>
   <g id="text_14">
    <text style="font-size: 8px; font-family: 'DejaVu Sans'; text-anchor: end" x="310.097098" y="206.807883" transform="rotate(-0 310.097098 206.807883)">Baseline</text>
   </g>
   <g id="PathCollection_2">
    <defs>
     <path id="m386904ca10" d="M 0 4.1833 
C 1.109424 4.1833 2.173559 3.742521 2.95804 2.95804 
C 3.742521 2.173559 4.1833 1.109424 4.1833 0 
C 4.1833 -1.109424 3.742521 -2.173559 2.95804 -2.95804 
C 2.173559 -3.742521 1.109424 -4.1833 0 -4.1833 
C -1.109424 -4.1833 -2.173559 -3.742521 -2.95804 -2.95804 
C -3.742521 -2.173559 -4.1833 -1.109424 -4.1833 0 
C -4.1833 1.109424 -3.742521 2.173559 -2.95804 2.95804 
C -2.173559 3.742521 -1.109424 4.1833 0 4.1833 
z
" style="stroke: #ff7f0e"/>
    </defs>
    <g clip-path="url(#pbe0f0bb73a)">
     <use xlink:href="#m386904ca10" x="176.225772" y="136.710594" style="fill: #ff7f0e; stroke: #ff7f0e"/>
    </g>
   </g>
   <g id="text_15">
    <text style="font-size: 8px; font-family: 'DejaVu Sans'; text-anchor: start" x="183.225772" y="131.046844" transform="rotate(-0 183.225772 131.046844)">w/o Pose</text>
   </g>
   <g id="PathCollection_3">
    <defs>
     <path id="mffd36eaadd" d="M 0 4.1833 
C 1.109424 4.1833 2.173559 3.742521 2.95804 2.95804 
C 3.742521 2.173559 4.1833 1.109424 4.1833 0 
C 4.1833 -1.109424 3.742521 -2.173559 2.95804 -2.95804 
C 2.173559 -3.742521 1.109424 -4.1833 0 -4.1833 
C -1.109424 -4.1833 -2.173559 -3.742521 -2.95804 -2.95804 
C -3.742521 -2.173559 -4.1833 -1.109424 -4.1833 0 
C -4.1833 1.109424 -3.742521 2.173559 -2.95804 2.95804 
C -2.173559 3.742521 -1.109424 4.1833 0 4.1833 
z
" style="stroke: #2ca02c"/>
    </defs>
    <g clip-path="url(#pbe0f0bb73a)">
     <use xlink:href="#mffd36eaadd" x="304.21765" y="60.949555" style="fill: #2ca02c; stroke: #2ca02c"/>
    </g>
   </g>
   <g id="text_16">
    <text style="font-size: 8px; font-family: 'DejaVu Sans'; text-anchor: end" x="297.21765" y="72.028305" transform="rotate(-0 297.21765 72.028305)">w/o Robust Vote</text>
   </g>
   <g id="PathCollection_4">
    <defs>
     <path id="md1bb095ffd" d="M 0 4.1833 
C 1.109424 4.1833 2.173559 3.742521 2.95804 2.95804 
C 3.742521 2.173559 4.1833 1.109424 4.1833 0 
C 4.1833 -1.109424 3.742521 -2.173559 2.95804 -2.95804 
C 2.173559 -3.742521 1.109424 -4.1833 0 -4.1833 
C -1.109424 -4.1833 -2.173559 -3.742521 -2.95804 -2.95804 
C -3.742521 -2.173559 -4.1833 -1.109424 -4.1833 0 
C -4.1833 1.109424 -3.742521 2.173559 -2.95804 2.95804 
C -2.173559 3.742521 -1.109424 4.1833 0 4.1833 
z
" style="stroke: #d62728"/>
    </defs>
    <g clip-path="url(#pbe0f0bb73a)">
     <use xlink:href="#md1bb095ffd" x="90.118527" y="86.203234" style="fill: #d62728; stroke: #d62728"/>
    </g>
   </g>
   <g id="text_17">
    <text style="font-size: 8px; font-family: 'DejaVu Sans'; text-anchor: start" x="97.118527" y="97.281984" transform="rotate(-0 97.118527 97.281984)">w/o RSMRQ</text>
   </g>
   <g id="text_18">
    <text style="font-weight: 700; font-size: 8.5px; font-family: 'DejaVu Sans'; text-anchor: start" x="177.739198" y="72.408227" transform="rotate(-0 177.739198 72.408227)">Ours</text>
   </g>
   <g id="text_19">
    <text style="font-size: 9px; font-family: 'DejaVu Sans'; text-anchor: middle" x="203.607812" y="14.038594" transform="rotate(-0 203.607812 14.038594)">Success-Efficiency Trade-off</text>
   </g>
   <g id="PathCollection_5">
    <defs>
     <path id="m8ba08a8df0" d="M 0 4.873397 
C 1.29244 4.873397 2.532119 4.359905 3.446012 3.446012 
C 4.359905 2.532119 4.873397 1.29244 4.873397 0 
C 4.873397 -1.29244 4.359905 -2.532119 3.446012 -3.446012 
C 2.532119 -4.359905 1.29244 -4.873397 0 -4.873397 
C -1.29244 -4.873397 -2.532119 -4.359905 -3.446012 -3.446012 
C -4.359905 -2.532119 -4.873397 -1.29244 -4.873397 0 
C -4.873397 1.29244 -4.359905 2.532119 -3.446012 3.446012 
C -2.532119 4.359905 -1.29244 4.873397 0 4.873397 
z
" style="stroke: #9467bd"/>
    </defs>
    <g clip-path="url(#pbe0f0bb73a)">
     <use xlink:href="#m8ba08a8df0" x="170.739198" y="60.949555" style="fill: #9467bd; stroke: #9467bd"/>
    </g>
   </g>
  </g>
 </g>
 <defs>
  <clipPath id="pbe0f0bb73a">
   <rect x="44.722813" y="20.038594" width="317.77" height="233.344"/>
  </clipPath>
 </defs>
</svg>
